<mxfile host="app.diagrams.net" modified="2024-03-18T04:31:11.492Z" agent="Mozilla/5.0 (Windows NT 10.0; Win64; x64) AppleWebKit/537.36 (KHTML, like Gecko) Chrome/122.0.0.0 Safari/537.36 Edg/122.0.0.0" etag="U5rbRbc0fFxKfLmd-z3L" version="24.0.7" type="device">
  <diagram name="Page-1" id="GEqS4orun3NoX15lkdb-">
    <mxGraphModel dx="925" dy="594" grid="1" gridSize="10" guides="1" tooltips="1" connect="1" arrows="1" fold="1" page="1" pageScale="1" pageWidth="850" pageHeight="1100" math="0" shadow="0">
      <root>
        <mxCell id="0" />
        <mxCell id="1" parent="0" />
        <mxCell id="gd3zuuG34O_qqazWHpxX-44" value="Process Business Pembuatan Laporan Penanggulangan" style="swimlane;html=1;childLayout=stackLayout;resizeParent=1;resizeParentMax=0;startSize=20;horizontal=0;horizontalStack=1;whiteSpace=wrap;" vertex="1" parent="1">
          <mxGeometry x="300" y="110" width="420" height="790" as="geometry">
            <mxRectangle x="210" y="20" width="40" height="190" as="alternateBounds" />
          </mxGeometry>
        </mxCell>
        <mxCell id="gd3zuuG34O_qqazWHpxX-45" value="PIC atau Dept Head PIC" style="swimlane;html=1;startSize=20;" vertex="1" parent="gd3zuuG34O_qqazWHpxX-44">
          <mxGeometry x="20" width="400" height="790" as="geometry">
            <mxRectangle x="20" width="40" height="480" as="alternateBounds" />
          </mxGeometry>
        </mxCell>
        <mxCell id="gd3zuuG34O_qqazWHpxX-46" style="edgeStyle=orthogonalEdgeStyle;rounded=0;orthogonalLoop=1;jettySize=auto;html=1;" edge="1" parent="gd3zuuG34O_qqazWHpxX-45" source="gd3zuuG34O_qqazWHpxX-47" target="gd3zuuG34O_qqazWHpxX-49">
          <mxGeometry relative="1" as="geometry" />
        </mxCell>
        <mxCell id="gd3zuuG34O_qqazWHpxX-47" value="Login" style="points=[[0.25,0,0],[0.5,0,0],[0.75,0,0],[1,0.25,0],[1,0.5,0],[1,0.75,0],[0.75,1,0],[0.5,1,0],[0.25,1,0],[0,0.75,0],[0,0.5,0],[0,0.25,0]];shape=mxgraph.bpmn.task;whiteSpace=wrap;rectStyle=rounded;size=10;html=1;container=1;expand=0;collapsible=0;taskMarker=abstract;" vertex="1" parent="gd3zuuG34O_qqazWHpxX-45">
          <mxGeometry x="157.5" y="100" width="85" height="30" as="geometry" />
        </mxCell>
        <mxCell id="gd3zuuG34O_qqazWHpxX-48" style="edgeStyle=orthogonalEdgeStyle;rounded=0;orthogonalLoop=1;jettySize=auto;html=1;" edge="1" parent="gd3zuuG34O_qqazWHpxX-45" source="gd3zuuG34O_qqazWHpxX-49" target="gd3zuuG34O_qqazWHpxX-51">
          <mxGeometry relative="1" as="geometry" />
        </mxCell>
        <mxCell id="gd3zuuG34O_qqazWHpxX-49" value="Membuka halaman Laporan Patrol" style="points=[[0.25,0,0],[0.5,0,0],[0.75,0,0],[1,0.25,0],[1,0.5,0],[1,0.75,0],[0.75,1,0],[0.5,1,0],[0.25,1,0],[0,0.75,0],[0,0.5,0],[0,0.25,0]];shape=mxgraph.bpmn.task;whiteSpace=wrap;rectStyle=rounded;size=10;html=1;container=1;expand=0;collapsible=0;taskMarker=abstract;" vertex="1" parent="gd3zuuG34O_qqazWHpxX-45">
          <mxGeometry x="142.5" y="150" width="115" height="60" as="geometry" />
        </mxCell>
        <mxCell id="gd3zuuG34O_qqazWHpxX-50" style="edgeStyle=orthogonalEdgeStyle;rounded=0;orthogonalLoop=1;jettySize=auto;html=1;" edge="1" parent="gd3zuuG34O_qqazWHpxX-45" source="gd3zuuG34O_qqazWHpxX-51" target="gd3zuuG34O_qqazWHpxX-55">
          <mxGeometry relative="1" as="geometry" />
        </mxCell>
        <mxCell id="gd3zuuG34O_qqazWHpxX-51" value="Menekan tombol see detail pada jadwal laporan patrol" style="points=[[0.25,0,0],[0.5,0,0],[0.75,0,0],[1,0.25,0],[1,0.5,0],[1,0.75,0],[0.75,1,0],[0.5,1,0],[0.25,1,0],[0,0.75,0],[0,0.5,0],[0,0.25,0]];shape=mxgraph.bpmn.task;whiteSpace=wrap;rectStyle=rounded;size=10;html=1;container=1;expand=0;collapsible=0;taskMarker=abstract;" vertex="1" parent="gd3zuuG34O_qqazWHpxX-45">
          <mxGeometry x="138.75" y="240" width="122.5" height="60" as="geometry" />
        </mxCell>
        <mxCell id="gd3zuuG34O_qqazWHpxX-52" style="edgeStyle=orthogonalEdgeStyle;rounded=0;orthogonalLoop=1;jettySize=auto;html=1;" edge="1" parent="gd3zuuG34O_qqazWHpxX-45" source="gd3zuuG34O_qqazWHpxX-53" target="gd3zuuG34O_qqazWHpxX-47">
          <mxGeometry relative="1" as="geometry" />
        </mxCell>
        <mxCell id="gd3zuuG34O_qqazWHpxX-53" value="" style="points=[[0.145,0.145,0],[0.5,0,0],[0.855,0.145,0],[1,0.5,0],[0.855,0.855,0],[0.5,1,0],[0.145,0.855,0],[0,0.5,0]];shape=mxgraph.bpmn.event;html=1;verticalLabelPosition=bottom;labelBackgroundColor=#ffffff;verticalAlign=top;align=center;perimeter=ellipsePerimeter;outlineConnect=0;aspect=fixed;outline=standard;symbol=general;fillColor=#00FF00;strokeColor=#2D7600;fontColor=#ffffff;" vertex="1" parent="gd3zuuG34O_qqazWHpxX-45">
          <mxGeometry x="185" y="50" width="30" height="30" as="geometry" />
        </mxCell>
        <mxCell id="gd3zuuG34O_qqazWHpxX-70" style="edgeStyle=orthogonalEdgeStyle;rounded=0;orthogonalLoop=1;jettySize=auto;html=1;" edge="1" parent="gd3zuuG34O_qqazWHpxX-45" source="gd3zuuG34O_qqazWHpxX-55" target="gd3zuuG34O_qqazWHpxX-56">
          <mxGeometry relative="1" as="geometry" />
        </mxCell>
        <mxCell id="gd3zuuG34O_qqazWHpxX-55" value="Menekan tombol see detail pada laporan temuan" style="points=[[0.25,0,0],[0.5,0,0],[0.75,0,0],[1,0.25,0],[1,0.5,0],[1,0.75,0],[0.75,1,0],[0.5,1,0],[0.25,1,0],[0,0.75,0],[0,0.5,0],[0,0.25,0]];shape=mxgraph.bpmn.task;whiteSpace=wrap;rectStyle=rounded;size=10;html=1;container=1;expand=0;collapsible=0;taskMarker=abstract;" vertex="1" parent="gd3zuuG34O_qqazWHpxX-45">
          <mxGeometry x="140" y="330" width="120" height="60" as="geometry" />
        </mxCell>
        <mxCell id="gd3zuuG34O_qqazWHpxX-56" value="Menekan tombol Update Perbaikan" style="points=[[0.25,0,0],[0.5,0,0],[0.75,0,0],[1,0.25,0],[1,0.5,0],[1,0.75,0],[0.75,1,0],[0.5,1,0],[0.25,1,0],[0,0.75,0],[0,0.5,0],[0,0.25,0]];shape=mxgraph.bpmn.task;whiteSpace=wrap;rectStyle=rounded;size=10;html=1;container=1;expand=0;collapsible=0;taskMarker=abstract;" vertex="1" parent="gd3zuuG34O_qqazWHpxX-45">
          <mxGeometry x="140" y="430" width="120" height="60" as="geometry" />
        </mxCell>
        <mxCell id="gd3zuuG34O_qqazWHpxX-71" style="edgeStyle=orthogonalEdgeStyle;rounded=0;orthogonalLoop=1;jettySize=auto;html=1;" edge="1" parent="gd3zuuG34O_qqazWHpxX-45" source="gd3zuuG34O_qqazWHpxX-58" target="gd3zuuG34O_qqazWHpxX-59">
          <mxGeometry relative="1" as="geometry" />
        </mxCell>
        <mxCell id="gd3zuuG34O_qqazWHpxX-58" value="Menekan tombol submit" style="points=[[0.25,0,0],[0.5,0,0],[0.75,0,0],[1,0.25,0],[1,0.5,0],[1,0.75,0],[0.75,1,0],[0.5,1,0],[0.25,1,0],[0,0.75,0],[0,0.5,0],[0,0.25,0]];shape=mxgraph.bpmn.task;whiteSpace=wrap;rectStyle=rounded;size=10;html=1;container=1;expand=0;collapsible=0;taskMarker=abstract;" vertex="1" parent="gd3zuuG34O_qqazWHpxX-45">
          <mxGeometry x="140" y="630" width="120" height="60" as="geometry" />
        </mxCell>
        <mxCell id="gd3zuuG34O_qqazWHpxX-59" value="" style="points=[[0.145,0.145,0],[0.5,0,0],[0.855,0.145,0],[1,0.5,0],[0.855,0.855,0],[0.5,1,0],[0.145,0.855,0],[0,0.5,0]];shape=mxgraph.bpmn.event;html=1;verticalLabelPosition=bottom;labelBackgroundColor=#ffffff;verticalAlign=top;align=center;perimeter=ellipsePerimeter;outlineConnect=0;aspect=fixed;outline=end;symbol=terminate;fillColor=#f8cecc;strokeColor=#b85450;gradientColor=#ea6b66;" vertex="1" parent="gd3zuuG34O_qqazWHpxX-45">
          <mxGeometry x="185" y="740" width="30" height="30" as="geometry" />
        </mxCell>
        <mxCell id="gd3zuuG34O_qqazWHpxX-67" value="Mengisi formulir data" style="points=[[0.25,0,0],[0.5,0,0],[0.75,0,0],[1,0.25,0],[1,0.5,0],[1,0.75,0],[0.75,1,0],[0.5,1,0],[0.25,1,0],[0,0.75,0],[0,0.5,0],[0,0.25,0]];shape=mxgraph.bpmn.task;whiteSpace=wrap;rectStyle=rounded;size=10;html=1;container=1;expand=0;collapsible=0;taskMarker=abstract;" vertex="1" parent="gd3zuuG34O_qqazWHpxX-45">
          <mxGeometry x="140" y="530" width="120" height="60" as="geometry" />
        </mxCell>
        <mxCell id="gd3zuuG34O_qqazWHpxX-68" style="edgeStyle=orthogonalEdgeStyle;rounded=0;orthogonalLoop=1;jettySize=auto;html=1;entryX=0.5;entryY=0;entryDx=0;entryDy=0;entryPerimeter=0;" edge="1" parent="gd3zuuG34O_qqazWHpxX-45" source="gd3zuuG34O_qqazWHpxX-56" target="gd3zuuG34O_qqazWHpxX-67">
          <mxGeometry relative="1" as="geometry" />
        </mxCell>
        <mxCell id="gd3zuuG34O_qqazWHpxX-69" style="edgeStyle=orthogonalEdgeStyle;rounded=0;orthogonalLoop=1;jettySize=auto;html=1;entryX=0.5;entryY=0;entryDx=0;entryDy=0;entryPerimeter=0;" edge="1" parent="gd3zuuG34O_qqazWHpxX-45" source="gd3zuuG34O_qqazWHpxX-67" target="gd3zuuG34O_qqazWHpxX-58">
          <mxGeometry relative="1" as="geometry" />
        </mxCell>
      </root>
    </mxGraphModel>
  </diagram>
</mxfile>
